<svg width="150" height="150" viewBox="0 0 150 150" fill="none" xmlns="http://www.w3.org/2000/svg">
<path fill-rule="evenodd" clip-rule="evenodd" d="M74.3861 8.79122C84.0798 8.80761 90.1613 13.4858 92.6309 22.8257C93.4302 30.836 90.3714 36.8456 83.4545 40.8547C74.9287 44.2381 67.7674 42.4028 61.9709 35.3488C57.2091 27.0426 58.1807 19.5215 64.8858 12.7857C67.7052 10.546 70.872 9.21453 74.3861 8.79122Z" fill="black"/>
<path fill-rule="evenodd" clip-rule="evenodd" d="M73.3065 13.7573C78.1294 13.0074 82.1238 14.4468 85.2898 18.0756C88.7237 22.8545 88.8677 27.7486 85.7216 32.7579C82.3816 36.9179 78.0992 38.4654 72.8746 37.4C67.9768 35.7815 64.9898 32.4348 63.9142 27.36C63.6093 20.4347 66.7401 15.9004 73.3065 13.7573Z" fill="white"/>
<path fill-rule="evenodd" clip-rule="evenodd" d="M28.7392 18.4961C31.1065 18.1968 33.3376 18.5927 35.4326 19.6836C46.172 27.1081 56.8959 34.5932 67.604 42.1388C69.4534 43.0152 71.3966 43.5911 73.4338 43.8662C75.9528 44.0102 78.4717 44.0102 80.9908 43.8662C82.2863 43.4343 83.5818 43.0025 84.8773 42.5707C94.5652 35.6033 104.137 28.4781 113.594 21.195C114.823 20.2929 116.118 19.5012 117.481 18.82C123.204 17.5596 126.982 19.6827 128.816 25.1895C129.326 27.8992 128.75 30.3462 127.089 32.5306C117.975 39.9896 108.798 47.3668 99.5595 54.6619C98.0442 55.8877 96.8567 57.3633 95.9969 59.0882C96.2038 75.8195 98.4348 92.3012 102.69 108.533C105.691 116.744 108.641 124.948 111.543 133.147C112.12 137.687 110.5 141.178 106.685 143.619C101.362 145.898 97.0076 144.711 93.6219 140.057C87.6693 124.914 81.6597 109.8 75.5929 94.7143C69.7377 109.364 63.9441 124.046 58.2117 138.761C55.8882 143.528 52.1097 145.435 46.8761 144.483C41.5726 142.699 39.1615 138.992 39.643 133.363C42.5954 125.081 45.5461 116.805 48.4955 108.533C52.946 92.2604 55.177 75.7068 55.1889 58.8723C54.5653 57.7331 53.8096 56.6896 52.9218 55.7415C43.9973 48.6163 35.0727 41.4911 26.1482 34.3659C21.8578 30.7724 21.1021 26.562 23.8811 21.7348C25.1956 20.1633 26.815 19.0838 28.7392 18.4961Z" fill="black"/>
<path fill-rule="evenodd" clip-rule="evenodd" d="M121.887 30.3828C122.053 29.4213 122.521 28.6298 123.291 28.0077C123.34 27.4474 123.448 26.9076 123.615 26.3883C123.327 26.1724 123.039 25.9565 122.751 25.7406C123.065 25.6493 123.173 25.4694 123.075 25.2008C123.003 25.2727 122.931 25.3448 122.859 25.4167C122.463 25.1647 122.139 24.8409 121.887 24.4451C121.197 24.3596 120.585 24.1078 120.052 23.6894C119.489 24.3076 118.877 24.8834 118.217 25.4167C117.85 25.1891 117.49 24.9732 117.137 24.769C118.951 22.9356 120.895 22.7916 122.967 24.3371C124.258 25.9168 124.366 27.5722 123.291 29.3032C122.911 29.7922 122.443 30.1522 121.887 30.3828Z" fill="white"/>
<path fill-rule="evenodd" clip-rule="evenodd" d="M117.245 24.661C118.217 23.7973 119.836 22.9337 120.808 23.2575C121.913 23.4913 122.535 24.0133 122.859 24.2292C123.183 24.5531 123.291 24.661 123.291 24.661L123.507 24.9849C123.507 25.0928 123.615 25.2008 123.615 25.3088C123.615 25.5801 123.748 25.6505 123.964 26.1903C124.072 26.838 124.18 27.2699 123.964 28.0256C123.748 28.4574 123.532 29.6449 122.02 30.4006C113.406 37.5174 104.672 44.4088 95.8697 51.3266C93.232 53.4287 91.6127 56.1277 91.0116 59.4234C91.3477 76.0262 93.5788 92.3637 97.7049 108.436C100.612 116.799 103.563 125.148 106.557 133.482C107.027 138.046 104.976 140.097 100.404 139.636C99.2457 139.198 98.346 138.443 97.7049 137.369C91.8867 122.638 86.1288 107.883 80.4317 93.1062C78.8046 89.8642 76.3215 88.9645 72.9826 90.4073C72.0758 90.9615 71.392 91.7172 70.9314 92.6744C65.1628 107.746 59.261 122.788 53.2263 137.801C51.2688 139.901 49.0017 140.297 46.425 138.988C44.7471 137.597 44.1354 135.834 44.5897 133.698C47.5838 125.364 50.5347 117.015 53.4422 108.652C54.8021 103.286 55.9896 97.8879 57.0049 92.4585C57.438 91.8081 57.7258 91.0524 57.8685 90.1913C57.6986 89.7381 57.6267 89.2703 57.6526 88.7879C58.9585 79.5435 59.8221 70.2591 60.2436 60.9348C60.3742 59.4115 60.1222 57.9722 59.4879 56.6165C58.6847 55.0941 57.7131 53.6906 56.573 52.4061C47.0367 44.7411 37.5005 37.0761 27.9642 29.4111C26.3857 27.0307 26.7815 25.0516 29.1517 23.4735C30.0675 23.1589 31.0031 23.0868 31.9586 23.2575C43.0299 30.8023 54.0416 38.4314 64.9937 46.1446C72.5981 49.6556 80.227 49.7277 87.8808 46.3605C97.7032 39.1636 107.492 31.9304 117.245 24.661Z" fill="white"/>
<path d="M57.8685 87.5245L59.1734 87.7545L58.113 93.7683L56.8081 93.5382L57.8685 87.5245Z" fill="white"/>
<path d="M123.548 24.631C124.78 26.3915 124.337 28.829 122.557 30.0753C120.777 31.3216 118.335 30.9047 117.102 29.1442C115.87 27.3837 116.313 24.9462 118.093 23.6999C119.873 22.4536 122.315 22.8705 123.548 24.631Z" fill="white"/>
<path d="M33.9428 24.61C35.1756 26.3705 34.732 28.808 32.9521 30.0543C31.1722 31.3006 28.73 30.8837 27.4973 29.1232C26.2646 27.3627 26.7081 24.9252 28.488 23.6789C30.2679 22.4326 32.7101 22.8495 33.9428 24.61Z" fill="white"/>
<circle cx="37" cy="40" r="5.5" fill="white" stroke="black" stroke-width="3"/>
<circle cx="92.5" cy="61.5" r="10.3125" fill="white" stroke="black" stroke-width="5.625"/>
<circle cx="115.5" cy="86.5" r="4.8125" fill="white" stroke="black" stroke-width="2.625"/>
<circle cx="51" cy="104" r="8.25" fill="white" stroke="black" stroke-width="4.5"/>
<circle cx="85" cy="15" r="5.5" fill="white" stroke="black" stroke-width="3"/>
</svg>
